<?xml version="1.0" encoding="utf-8"?>
<!-- Generator: Adobe Illustrator 27.2.0, SVG Export Plug-In . SVG Version: 6.00 Build 0)  -->
<svg version="1.1" id="Layer_1" xmlns="http://www.w3.org/2000/svg" xmlns:xlink="http://www.w3.org/1999/xlink" x="0px" y="0px"
	 viewBox="0 0 515.62 326.56" style="enable-background:new 0 0 515.62 326.56;" xml:space="preserve">
<style type="text/css">
	.st0{fill-rule:evenodd;clip-rule:evenodd;fill:#FFFFFF;}
</style>
<path class="st0" d="M354.96,85.97c21.14-17.63,44.71-24.34,67.33-22.65c24.12,1.81,46.44,13.12,63.12,29.54
	c16.67,16.42,28.12,38.39,29.96,62.1c1.85,23.93-6.16,48.98-27.28,70.97c-1.93,2.03-3.9,4.02-5.92,6
	c-95.8,94.37-223.05,94.62-224.35,94.62h-0.01c-0.65,0-128.3,0-224.35-94.63l-0.02-0.02c-1.98-1.96-3.94-3.94-5.86-5.93l-0.02-0.02
	c-21.13-21.97-29.15-47.02-27.3-70.95C2.08,131.3,13.53,109.33,30.2,92.9c16.67-16.43,38.99-27.75,63.11-29.56
	c22.61-1.7,46.2,5,67.34,22.62c2.27-27.18,14.12-48.34,31.32-62.89C210.3,7.57,234.2,0,257.8,0c23.6,0,47.5,7.57,65.84,23.08
	C340.84,37.62,352.69,58.79,354.96,85.97z M262.19,316.99l0-0.12h0.01L262.19,316.99z M253.42,316.99l0-0.12h0.01L253.42,316.99z
	 M329.78,185.96c-2.62,0-3.53,3.73-1.86,5.7c2.96,3.5,4.74,8,4.74,12.91c0,11.14-9.17,20.18-20.48,20.18
	c-11.31,0-20.48-9.03-20.48-20.18c0-0.6-0.79-0.89-1.15-0.41c-3.23,4.37-5.41,9.28-6.31,14.43c-0.5,2.9-2.9,5.31-5.91,5.31h-1.66
	c-3.93,0-7.16-3.14-6.58-6.94c3.97-26.03,30.02-44.91,59.68-44.91c29.66,0,55.71,18.88,59.68,44.91c0.58,3.8-2.66,6.94-6.58,6.94
	c-3.93,0-7.04-3.15-7.89-6.9C371.1,199.93,353.1,185.96,329.78,185.96z M147.91,204.57c0-0.79-1.03-1.21-1.52-0.58
	c-3.45,4.44-5.81,9.47-6.8,14.76c-0.59,3.13-3.17,5.73-6.42,5.73h-1.22c-3.93,0-7.16-3.14-6.58-6.93
	c3.97-26.05,30.02-44.91,59.68-44.91c29.66,0,55.71,18.87,59.68,44.91c0.58,3.8-2.66,6.93-6.58,6.93c-3.92,0-7.03-3.15-7.89-6.9
	c-3.88-17.07-21.88-31.04-45.21-31.04c-2.12,0-2.9,2.93-1.48,4.47c3.3,3.58,5.31,8.34,5.31,13.55c0,11.14-9.17,20.18-20.48,20.18
	S147.91,215.72,147.91,204.57z M280.59,253.23c2.77-2.72,7.06-4.04,10.51-2.2c3.44,1.84,4.75,6.12,2.27,9.1
	c-8.09,9.69-21.18,15.83-35.61,15.83c-14.43,0-27.55-6.07-35.65-15.84c-2.47-2.98-1.15-7.26,2.3-9.09c3.45-1.83,7.73-0.49,10.5,2.23
	c5.34,5.24,13.43,8.79,22.84,8.79C267.13,262.05,275.24,258.47,280.59,253.23z"/>
</svg>
