<?xml version="1.0" encoding="utf-8"?>
<!-- Generator: Adobe Illustrator 27.2.0, SVG Export Plug-In . SVG Version: 6.00 Build 0)  -->
<svg version="1.1" id="Layer_1" xmlns="http://www.w3.org/2000/svg" xmlns:xlink="http://www.w3.org/1999/xlink" x="0px" y="0px"
	 viewBox="0 0 375.1 375.1" style="enable-background:new 0 0 375.1 375.1;" xml:space="preserve">
<style type="text/css">
	.st0{fill:#FFFFFF;}
</style>
<circle cx="187.55" cy="187.55" r="187.55"/>
<path class="st0" d="M187.07,281.99c-19.84,0-39.68-0.16-59.52,0.1c-5.73,0.08-7.48-2.07-7.48-7.56
	c0.01-14.05-0.18-14.2-14.52-14.45c-5.22-0.09-7.37-1.98-7.26-7.3c0.24-11.41,0.18-22.84,0.03-34.25c-0.06-4.7,1.96-6.67,6.57-6.61
	c7.76,0.1,15.53,0.15,23.29-0.02c4.99-0.11,7.22,1.96,6.7,6.98c-0.16,1.49,0.1,3.03-0.08,4.52c-0.63,5.23,1.92,6.79,6.79,6.68
	c9.89-0.23,19.8,0.09,29.69-0.21c5.49-0.17,7.66,1.7,7.69,7.4c0.07,15.72,0.27,15.71,16.3,15.66c7.11-0.02,14.22-0.18,21.32,0.07
	c5.22,0.18,7.38-1.7,7.19-7.14c-0.34-9.47-0.12-18.96-0.15-28.44c-0.02-7.35-1.61-9.08-9.1-9.11c-18.11-0.08-36.23-0.06-54.35,0
	c-8.31,0.02-9.14-0.34-8.71-8.59c0.34-6.53-1.86-8.7-8.45-8.44c-12.06,0.47-24.15-0.05-36.22,0.21c-6,0.13-8.61-1.94-8.52-8.21
	c0.25-17.02,0.19-34.04,0.03-51.06c-0.06-5.69,2.09-8.57,7.98-8.18c1.07,0.07,2.16,0.01,3.23,0.01
	c10.61-0.02,10.61-0.02,10.65-10.86c0.03-9.65,0.23-9.88,9.64-9.89c38.82-0.01,77.64-0.02,116.46,0c8.3,0,8.7,0.45,8.79,8.8
	c0.02,1.94-0.05,3.88-0.02,5.82c0.06,4.2,2.02,6.41,6.42,6.12c17.9-1.18,15.1,1.8,15.27,16.24c0.1,8.4-0.13,16.81,0.07,25.21
	c0.11,4.73-2.03,6.7-6.54,6.7c-7.53,0-15.07-0.07-22.6,0.09c-5.13,0.11-7.34-1.88-7.29-7.27c0.1-9.8-0.15-9.8-9.99-9.81
	c-9.06-0.01-18.12-0.12-27.17,0.04c-4.87,0.08-6.91-1.61-6.81-6.83c0.3-16.08,0.12-16.08-15.88-16.08c-7.12,0-14.24,0.22-21.35-0.07
	c-5.48-0.22-7.89,1.74-7.74,7.42c0.25,9.9,0.19,19.82,0.02,29.73c-0.09,5.47,2.15,7.76,7.7,7.71c18.76-0.16,37.52-0.07,56.29-0.05
	c8.07,0.01,8.42,0.38,8.49,8.33c0.08,8.45,0.08,8.46,8.58,8.47c12.08,0.01,24.16,0.12,36.23-0.04c5.7-0.08,8.18,2.11,8.1,8.04
	c-0.23,16.8-0.23,33.61,0,50.41c0.07,5.42-1.59,7.92-7.36,7.79c-16.04-0.35-14.57-0.89-14.3,14.78c0.09,5.43-2.12,7.22-7.28,7.19
	C227.62,281.9,207.34,281.98,187.07,281.99z"/>
</svg>
